<svg xmlns="http://www.w3.org/2000/svg" viewBox="0 0 96 96"><defs><radialGradient id="sea"><stop stop-color="#0c423e"/><stop offset="1" stop-color="#081820"/></radialGradient><clipPath id="round"><circle cx="48" cy="48" r="44"/></clipPath></defs><circle cx="48" cy="48" r="45" fill="url(#sea)" stroke="#a2e2d1" stroke-width="2"/><circle cx="48" cy="48" r="41" fill="none" stroke="#a2e2d1" stroke-opacity=".3" stroke-dasharray="2 5"/><g clip-path="url(#round)"><path d="M18 16c20-7 37 7 60 0v61c-23 7-40-7-60 0Z" fill="#0c423e" stroke="#a2e2d1" stroke-opacity=".18"/><path d="M18 17v62m58-62v59" stroke="#a2e2d1" stroke-opacity=".18"/><g color="#a2e2d1"><g stroke="currentColor" stroke-width="5" stroke-linecap="round"><path d="m29 66 38-32M29 34l38 32"/></g><path d="M35 31h26v5h5v20h-7v11H37V56h-7V36h5Z" fill="currentColor"/><path d="M35 41h9v9h-9zm17 0h9v9h-9zM46 51h5v6h-5zM42 60h3v7h-3zm9 0h3v7h-3z" fill="#14242c"/><path d="m31 27 9-10-3 12 12-11 2 10 11-10-1 11 8-4-3 11H31Z" fill="#74d3bd"/><path d="M35 43h9v4h-9zm17 0h9v4h-9z" fill="#8fffe0"/></g><path d="m25 83 23 3 23-3" stroke="#a2e2d1" stroke-opacity=".6" fill="none"/></g></svg>