<svg xmlns="http://www.w3.org/2000/svg" viewBox="0 0 96 96"><defs><radialGradient id="sea"><stop stop-color="#3a2b38"/><stop offset="1" stop-color="#081820"/></radialGradient><clipPath id="round"><circle cx="48" cy="48" r="44"/></clipPath></defs><circle cx="48" cy="48" r="45" fill="url(#sea)" stroke="#eeebe0" stroke-width="2"/><circle cx="48" cy="48" r="41" fill="none" stroke="#eeebe0" stroke-opacity=".3" stroke-dasharray="2 5"/><g clip-path="url(#round)"><path d="M18 16c20-7 37 7 60 0v61c-23 7-40-7-60 0Z" fill="#3a2b38" stroke="#eeebe0" stroke-opacity=".18"/><path d="M18 17v62m58-62v59" stroke="#eeebe0" stroke-opacity=".18"/><g color="#eeebe0"><path d="M35 31h26v5h5v20h-7v11H37V56h-7V36h5Z" fill="currentColor"/><path d="M35 41h9v9h-9zm17 0h9v9h-9zM46 51h5v6h-5zM42 60h3v7h-3zm9 0h3v7h-3z" fill="#14242c"/><path d="m32 67 31-2 5 7-25 3 8 7-13 1Z" fill="#d36351"/><path d="M34 40h12v3H34zM53 40h8v3h-8zM39 58h20v3H39z" fill="#182932"/></g><path d="m25 83 23 3 23-3" stroke="#eeebe0" stroke-opacity=".6" fill="none"/></g></svg>