<svg xmlns="http://www.w3.org/2000/svg" viewBox="0 0 96 96"><defs><radialGradient id="sea"><stop stop-color="#172936"/><stop offset="1" stop-color="#081820"/></radialGradient><clipPath id="round"><circle cx="48" cy="48" r="44"/></clipPath></defs><circle cx="48" cy="48" r="45" fill="url(#sea)" stroke="#d7cbb0" stroke-width="2"/><circle cx="48" cy="48" r="41" fill="none" stroke="#d7cbb0" stroke-opacity=".3" stroke-dasharray="2 5"/><g clip-path="url(#round)"><path d="M18 16c20-7 37 7 60 0v61c-23 7-40-7-60 0Z" fill="#172936" stroke="#d7cbb0" stroke-opacity=".18"/><path d="M18 17v62m58-62v59" stroke="#d7cbb0" stroke-opacity=".18"/><g color="#d7cbb0"><g stroke="currentColor" stroke-width="5" stroke-linecap="round"><path d="m29 66 38-32M29 34l38 32"/></g><path d="M35 31h26v5h5v20h-7v11H37V56h-7V36h5Z" fill="currentColor"/><path d="M35 41h9v9h-9zm17 0h9v9h-9zM46 51h5v6h-5zM42 60h3v7h-3zm9 0h3v7h-3z" fill="#14242c"/></g><path d="m25 83 23 3 23-3" stroke="#d7cbb0" stroke-opacity=".6" fill="none"/></g></svg>